<svg xmlns="http://www.w3.org/2000/svg" xml:space="preserve" viewBox="0 0 1000 1000"><path fill="gray" id="bf2" d="M918 628v113L593 554V307l104 57v-77l-104-62v-49l325 180-221 129zM406 933V660L171 794l-89-60 330-189 203 123-43 113 120-64 42 26M281 515V373l-68 36v147l-42 24V188l235 129V66l95-51v371z"/><path fill="#fff" id="bf1" d="m593 307 104 57v-77l-104-62v-49l325 180V250L501 15v371L281 515V373l-68 36v147l-42 24V188l-89 52v494l330-189 203 123-114 69 71 44 120-64 42 26-328 190 95 54 417-246-325-187"/><path id="outline" d="m499 5-99 56v245L176 177 73 234v509l98 58 229-133v270l99 57 429-252V626L707 486l221-122V246zm-4 19v358l-83 49V70zm12 0 406 229v94L588 164v67l107 60v63l-107-62v252l-81-50zm93 163 309 172-214 119-81-51 92-54v-91l-106-61zM400 320v109l-118-71-75 46v150l-33 19V194zM162 203l-1 394 59-34-1-151 54-32v152l222-133v95L87 731l1-487zm438 113 91 52-91 54zm-313 63 105 62-105 66zm313 55 313 197v100L600 549zm-99 73 403 235-405 237-79-43 328-192-58-36-117 68-55-38 116-65-207-125zm-87 46 77 48-320 187-78-46zm93 60 101 59-101 56zm-12 2v126l76 51 122-68 31 18-312 180V663z"/></svg>