<svg xmlns="http://www.w3.org/2000/svg" xml:space="preserve" viewBox="0 0 1000 1000"><path fill="gray" id="bf2" d="M918 628v113L593 554V307l104 57v-77l-104-62v-49l325 180-221 129zM406 933V660L171 794l-89-60 330-189 203 123-43 113 120-64 42 26M281 515V373l-68 36v147l-42 24V188l235 129V66l95-51v371z"/><path fill="#fff" id="bf1" d="m593 307 104 57v-77l-104-62v-49l325 180V250L501 15v371L281 515V373l-68 36v147l-42 24V188l-89 52v494l330-189 203 123-114 69 71 44 120-64 42 26-328 190 95 54 417-246-325-187"/></svg>